<?xml version="1.0" encoding="utf-8"?>
<!-- Generator: Adobe Illustrator 16.0.4, SVG Export Plug-In . SVG Version: 6.00 Build 0)  -->
<!DOCTYPE svg PUBLIC "-//W3C//DTD SVG 1.1//EN" "http://www.w3.org/Graphics/SVG/1.1/DTD/svg11.dtd">
<svg version="1.1" id="Layer_1" xmlns="http://www.w3.org/2000/svg" xmlns:xlink="http://www.w3.org/1999/xlink" x="0px" y="0px"
	 width="18px" height="18px" viewBox="0 0 18 18" enable-background="new 0 0 18 18" xml:space="preserve">
<g>
	<defs>
		<rect id="SVGID_1_" x="-33.833" y="-84.208" width="170.543" height="130.75"/>
	</defs>
	<clipPath id="SVGID_2_">
		<use xlink:href="#SVGID_1_"  overflow="visible"/>
	</clipPath>
	<path clip-path="url(#SVGID_2_)" d="M13.93,11.795c-0.182,0-0.363,0.012-0.543-0.002c-0.788-0.06-1.441,0.088-2.116,0.636
		c-1.502,1.221-3.529,0.992-4.933-0.369c-0.147-0.143-0.397-0.248-0.604-0.253c-1.014-0.025-2.029-0.007-3.043-0.013
		c-0.755-0.005-1.126-0.378-1.132-1.139c-0.007-0.833-0.008-1.666,0-2.499c0.007-0.737,0.401-1.14,1.144-1.148
		c0.996-0.013,1.993,0.018,2.988-0.017C5.947,6.982,6.213,6.83,6.446,6.694c0.418-0.243,0.8-0.553,1.226-0.779
		c0.245-0.13,0.424-0.222,0.392-0.544C8.015,4.877,8.288,4.685,8.758,4.707c0.217,0.011,0.435,0.006,0.651,0.002
		c0.424-0.01,0.667,0.184,0.63,0.617c-0.027,0.332,0.121,0.459,0.406,0.586c0.375,0.166,0.763,0.366,1.052,0.646
		c0.354,0.345,0.713,0.478,1.201,0.456C13.566,6.978,14.437,7,15.307,7.006c0.847,0.005,1.234,0.387,1.238,1.219
		c0.005,0.797,0.005,1.595,0,2.392c-0.005,0.817-0.369,1.174-1.202,1.179C14.871,11.798,14.4,11.795,13.93,11.795 M5.896,9.412
		c-0.001,1.737,1.396,3.136,3.139,3.14c1.754,0.004,3.162-1.376,3.171-3.107c0.011-1.743-1.43-3.197-3.166-3.196
		C7.339,6.248,5.897,7.699,5.896,9.412 M5.638,11.173c-0.116-0.45-0.195-0.82-0.313-1.177c-0.036-0.107-0.18-0.251-0.277-0.253
		C4.111,9.724,3.176,9.73,2.198,9.73c0,0.356,0.01,0.644-0.003,0.931c-0.015,0.345,0.15,0.509,0.481,0.51
		C3.653,11.175,4.629,11.173,5.638,11.173 M2.24,9.07c0.948,0,1.865,0.007,2.782-0.011c0.104-0.002,0.267-0.117,0.299-0.216
		c0.125-0.383,0.208-0.78,0.314-1.199H3.399C2.102,7.645,2.101,7.645,2.24,9.07 M15.871,9.729c-0.95,0-1.869-0.006-2.789,0.01
		c-0.092,0.001-0.238,0.106-0.266,0.193c-0.121,0.389-0.209,0.788-0.323,1.243c0.744,0,1.447,0,2.149,0
		C15.984,11.176,15.984,11.176,15.871,9.729 M15.904,9.044c0-0.354,0.05-0.655-0.018-0.927c-0.045-0.179-0.256-0.442-0.401-0.448
		c-0.999-0.039-2.001-0.021-3.021-0.021c0.149,0.505,0.279,0.947,0.41,1.396H15.904z"/>
	
		<polyline clip-path="url(#SVGID_2_)" fill="none" stroke="#000000" stroke-width="0.435" stroke-linecap="round" stroke-linejoin="round" stroke-miterlimit="10" points="
		7.138,9.382 9.259,9.382 9.259,7.115 	"/>
</g>
</svg>
