<?xml version="1.0" encoding="utf-8"?>
<!-- Generator: Adobe Illustrator 16.0.4, SVG Export Plug-In . SVG Version: 6.00 Build 0)  -->
<!DOCTYPE svg PUBLIC "-//W3C//DTD SVG 1.1//EN" "http://www.w3.org/Graphics/SVG/1.1/DTD/svg11.dtd">
<svg version="1.1" id="Layer_1" xmlns="http://www.w3.org/2000/svg" xmlns:xlink="http://www.w3.org/1999/xlink" x="0px" y="0px"
	 width="18px" height="18px" viewBox="0 0 18 18" enable-background="new 0 0 18 18" xml:space="preserve">
<g>
	<defs>
		<rect id="SVGID_1_" x="-84.947" y="-82.625" width="170.543" height="130.75"/>
	</defs>
	<clipPath id="SVGID_2_">
		<use xlink:href="#SVGID_1_"  overflow="visible"/>
	</clipPath>
	<path clip-path="url(#SVGID_2_)" d="M6.776,8.918c0.607-1.05,1.17-2.021,1.732-2.996c0.168-0.29,0.329-0.586,0.505-0.872
		c0.379-0.617,0.832-0.621,1.202,0.008c0.744,1.266,1.469,2.541,2.204,3.812c0.096,0.164,0.2,0.322,0.327,0.524
		c0.156-0.257,0.274-0.47,0.41-0.669c0.301-0.441,0.762-0.477,1.031-0.035c0.535,0.874,1.044,1.767,1.531,2.667
		c0.224,0.412,0.007,0.781-0.45,0.859c-0.154,0.028-0.318,0.018-0.478,0.018c-3.861,0.001-7.724,0.001-11.587,0
		c-0.159,0-0.32,0.011-0.477-0.018c-0.458-0.081-0.674-0.452-0.444-0.861C3.078,9.934,3.886,8.522,4.72,7.127
		C4.99,6.675,5.449,6.709,5.743,7.169C6.09,7.715,6.402,8.282,6.776,8.918 M9.728,8.063C9.168,8.625,8.72,9.768,7.691,8.588
		c-0.588,1.021-1.139,1.977-1.715,2.977h7.279c-0.638-1.103-1.241-2.15-1.85-3.202C10.773,8.855,10.773,8.855,9.728,8.063
		 M2.844,11.597c0.784,0,1.456,0.014,2.128-0.01c0.139-0.005,0.327-0.113,0.401-0.231c0.309-0.493,0.591-1.004,0.864-1.519
		c0.066-0.125,0.126-0.329,0.071-0.434C5.976,8.777,5.61,8.17,5.215,7.486C4.408,8.886,3.651,10.197,2.844,11.597 M10.814,8.107
		c0.063-0.197,0.199-0.392,0.147-0.486c-0.419-0.778-0.873-1.536-1.351-2.362C9.04,6.253,8.524,7.147,7.987,8.079
		c0.21,0.138,0.377,0.249,0.567,0.373C8.812,8.147,9.04,7.881,9.262,7.61c0.25-0.305,0.522-0.326,0.824-0.08
		C10.306,7.707,10.526,7.879,10.814,8.107 M13.736,9.129c-1.067,0.877-0.267,1.599,0.172,2.248c0.165,0.242,0.742,0.205,1.131,0.295
		l0.069-0.159C14.654,10.724,14.199,9.935,13.736,9.129"/>
</g>
</svg>
