<?xml version="1.0" encoding="utf-8"?>
<!-- Generator: Adobe Illustrator 16.0.4, SVG Export Plug-In . SVG Version: 6.00 Build 0)  -->
<!DOCTYPE svg PUBLIC "-//W3C//DTD SVG 1.1//EN" "http://www.w3.org/Graphics/SVG/1.1/DTD/svg11.dtd">
<svg version="1.1" id="Layer_1" xmlns="http://www.w3.org/2000/svg" xmlns:xlink="http://www.w3.org/1999/xlink" x="0px" y="0px"
	 width="18px" height="18px" viewBox="0 0 18 18" enable-background="new 0 0 18 18" xml:space="preserve">
<g>
	<defs>
		<rect id="SVGID_1_" x="-32.875" y="-53.75" width="170.543" height="130.75"/>
	</defs>
	<clipPath id="SVGID_2_">
		<use xlink:href="#SVGID_1_"  overflow="visible"/>
	</clipPath>
	<path clip-path="url(#SVGID_2_)" d="M13.823,10.922c0.039-0.225,0.067-0.39,0.102-0.592h1.176c-0.434-1.139-0.842-2.209-1.25-3.279
		c-0.029,0.001-0.059,0.002-0.088,0.004c-0.132,0.931-0.265,1.862-0.395,2.793c-0.106,0.762-0.218,1.522-0.306,2.287
		c-0.043,0.375-0.225,0.491-0.592,0.49c-2.984-0.011-5.968-0.012-8.952,0c-0.437,0.002-0.594-0.143-0.531-0.585
		c0.298-2.097,0.582-4.196,0.869-6.295c0.039-0.281,0.193-0.397,0.48-0.396c3.047,0.005,6.094-0.003,9.14,0.019
		c0.175,0.001,0.44,0.19,0.506,0.354c0.613,1.528,1.194,3.067,1.777,4.607c0.168,0.444,0.073,0.582-0.392,0.591
		C14.869,10.929,14.371,10.922,13.823,10.922 M12.451,11.995C12.729,9.992,13.006,8,13.284,6h-8.84
		c-0.278,2.017-0.55,3.993-0.826,5.995H12.451z"/>
</g>
</svg>
